# xmcd
#
# Track frame offsets: 
#        150
#        11830
#        19964
#        28971
#        41123
#        51809
#        63571
#        73543
#        82368
#        92619
#        101934
#        111857
#        120172
#        131166
#        141190
#        153527
#        166376
#        176116
#        185837
#        194383
#        205710
#        216283
#        226495
#        234765
#        243595
#        255186
#        266845
#        277101
#        291411
#        301751
#        313986
#        324545
#
# Disc length: 4715 seconds
#
# Revision: 0
# Processed by: cddbd v1.5.2PL0 Copyright (c) Steve Scherf et al.
# Submitted via: ExactAudioCopy v0.95b2
#
DISCID=ef126920
DTITLE=Fifties Legends - cd 1
DYEAR=1900
DGENRE=
TTITLE0=Elvis Presley - Jailhouse Rock
TTITLE1=Buddy Holly - Rave On
TTITLE2=Everly Brothers - Wake Up Little Suzie
TTITLE3=Lonnie Donegan - Lost John
TTITLE4=Tommy Steele - Singing The Blues
TTITLE5=Cliff Richard and Drifters - Living Doll
TTITLE6=Michael Holliday - Story Of My Life
TTITLE7=Ricky Nelson - It's Late
TTITLE8=Neil Sedaka - Oh Carol
TTITLE9=Emile Ford and The Checkmates - What Do You Want To Make Those E
TTITLE9=yes At Me For
TTITLE10=Connie Francis - Stupid Cupid
TTITLE11=Coasters - Yakety Yak
TTITLE12=Don Lang - Witch Doctor
TTITLE13=Lord Rockingham's XI - Hoots Mon
TTITLE14=Bill Haley and The Comets - See You Later Alligator
TTITLE15=Jerry Lee Lewis - Whole Lotta Shakin' Going On
TTITLE16=Roy Orbison - Ooby Dooby
TTITLE17=Little Richard - Good Golly Miss Molly
TTITLE18=Eddie Cochran - C'Mon Everybody
TTITLE19=Danny and The Juniors - At The Hop
TTITLE20=Cliff Richard - Move It
TTITLE21=Vipers Skiffle Group - Don't You Rock Me Daddy O
TTITLE22=Johnny Kidd and The Pirates - Please Don't Touch
TTITLE23=Elvis Presley - All Shook Up
TTITLE24=Gene Vincent - Be Bop A Lula 
TTITLE25=Johnny Show Otis - Willie And The Hand Jive
TTITLE26=Frankie Lymon and The Teenagers - Why Do Fools Fall In Love
TTITLE27=Chuck Berry - Sweet Little Sixteen
TTITLE28=Marty Wilde - Endless Sleep
TTITLE29=Johnny Cash - I Walk The Line
TTITLE30=Fats Domino - Blueberry Hill
TTITLE31=Ray Charles - What I'd Say
EXTD=
EXTT0=
EXTT1=
EXTT2=
EXTT3=
EXTT4=
EXTT5=
EXTT6=
EXTT7=
EXTT8=
EXTT9=
EXTT10=
EXTT11=
EXTT12=
EXTT13=
EXTT14=
EXTT15=
EXTT16=
EXTT17=
EXTT18=
EXTT19=
EXTT20=
EXTT21=
EXTT22=
EXTT23=
EXTT24=
EXTT25=
EXTT26=
EXTT27=
EXTT28=
EXTT29=
EXTT30=
EXTT31=
PLAYORDER=
